<!-- Generated by IcoMoon.io -->
<svg version="1.1" xmlns="http://www.w3.org/2000/svg" width="60" height="60" viewBox="0 0 60 60">
<title>moneybag</title>
<path fill="#6366f1" d="M26.282 17.441h7.376v-2.768h-7.376v2.768zM33.604 18.362h-7.322c0 0-12.047 11.874-12.047 23.516 0 12.336 12.622 13.316 12.622 13.316s3.765 0.624 6.107 0c0 0 12.799-1.5 12.799-13.256 0.002-11.76-12.159-23.576-12.159-23.576zM34.146 43.356c-0.296 0.6-0.696 1.102-1.206 1.504-0.508 0.403-1.103 0.705-1.779 0.907-0.086 0.026-0.18 0.036-0.268 0.058v2.047h-1.843v-1.807c-0.023 0.002-0.045 0.006-0.067 0.006-0.523 0-1.009-0.041-1.459-0.126-0.448-0.086-0.844-0.189-1.189-0.307-0.345-0.12-0.632-0.246-0.861-0.377-0.231-0.131-0.398-0.248-0.499-0.349-0.103-0.101-0.174-0.248-0.218-0.439-0.041-0.193-0.064-0.467-0.064-0.827 0-0.242 0.007-0.444 0.024-0.609s0.039-0.296 0.077-0.399c0.036-0.103 0.081-0.174 0.139-0.218 0.058-0.041 0.128-0.064 0.204-0.064 0.111 0 0.264 0.064 0.463 0.193s0.454 0.272 0.767 0.428c0.313 0.157 0.684 0.298 1.119 0.429 0.433 0.127 0.936 0.193 1.506 0.193 0.375 0 0.711-0.045 1.007-0.135s0.549-0.216 0.756-0.381c0.208-0.165 0.366-0.367 0.474-0.609 0.111-0.244 0.165-0.512 0.165-0.812 0-0.343-0.096-0.637-0.281-0.885-0.188-0.246-0.433-0.463-0.733-0.656-0.3-0.191-0.641-0.369-1.024-0.538s-0.778-0.347-1.183-0.532c-0.407-0.188-0.801-0.399-1.183-0.639-0.383-0.238-0.726-0.521-1.026-0.853s-0.544-0.726-0.733-1.178c-0.188-0.452-0.279-0.996-0.279-1.627 0-0.727 0.135-1.365 0.403-1.914 0.27-0.549 0.634-1.007 1.089-1.369 0.457-0.362 0.996-0.634 1.616-0.814 0.319-0.092 0.649-0.159 0.986-0.203v-1.941h1.843v1.939c0.075 0.009 0.148 0.006 0.221 0.017 0.358 0.054 0.696 0.128 1.007 0.221 0.311 0.092 0.589 0.197 0.831 0.313s0.403 0.212 0.48 0.291c0.081 0.077 0.131 0.143 0.161 0.197 0.026 0.054 0.047 0.128 0.069 0.218 0.019 0.090 0.034 0.203 0.039 0.341 0.008 0.135 0.011 0.306 0.011 0.508 0 0.227-0.008 0.42-0.019 0.577-0.011 0.156-0.030 0.285-0.058 0.386-0.026 0.103-0.066 0.176-0.116 0.223s-0.116 0.069-0.204 0.069c-0.084 0-0.223-0.052-0.411-0.161-0.188-0.111-0.418-0.227-0.688-0.354-0.274-0.127-0.589-0.244-0.949-0.351-0.362-0.105-0.756-0.156-1.183-0.156-0.337 0-0.63 0.039-0.879 0.122-0.251 0.081-0.459 0.195-0.628 0.337-0.167 0.144-0.293 0.319-0.373 0.519-0.082 0.201-0.122 0.416-0.122 0.641 0 0.337 0.092 0.628 0.274 0.874s0.429 0.465 0.739 0.656c0.308 0.193 0.658 0.371 1.050 0.538 0.39 0.169 0.788 0.347 1.194 0.532 0.407 0.189 0.803 0.401 1.194 0.639s0.741 0.523 1.044 0.855 0.549 0.722 0.737 1.17c0.188 0.45 0.281 0.977 0.281 1.588-0.002 0.791-0.152 1.489-0.448 2.091zM33.546 13.751l3.746-9.223c0 0-2.363 1.961-3.746 1.961s-3.576-1.903-3.576-1.903-2.362 1.903-3.746 1.903c-1.382 0-3.632-1.845-3.632-1.845l3.804 9.107h7.149z"></path>
</svg>
