<!-- Generated by IcoMoon.io -->
<svg version="1.1" xmlns="http://www.w3.org/2000/svg" width="28" height="60" viewBox="0 0 28 60">
<title>cancel</title>
<path d="M27.12 39.36c0.72 0.72 1.080 1.58 1.080 2.58s-0.36 1.86-1.080 2.58c-0.72 0.64-1.58 0.96-2.58 0.96s-1.86-0.32-2.58-0.96c0 0-7.92-9.12-7.92-9.12s-7.92 9.12-7.92 9.12c-0.72 0.64-1.58 0.96-2.58 0.96s-1.86-0.32-2.58-0.96c-0.64-0.72-0.96-1.58-0.96-2.58s0.32-1.86 0.96-2.58c0 0 8.28-9.36 8.28-9.36s-8.28-9.48-8.28-9.48c-0.64-0.72-0.96-1.58-0.96-2.58s0.32-1.86 0.96-2.58c0.72-0.64 1.58-0.96 2.58-0.96s1.86 0.32 2.58 0.96c0 0 7.92 9.12 7.92 9.12s7.92-9.12 7.92-9.12c0.72-0.64 1.58-0.96 2.58-0.96s1.86 0.32 2.58 0.96c0.72 0.72 1.080 1.58 1.080 2.58s-0.36 1.86-1.080 2.58c0 0-8.28 9.48-8.28 9.48s8.28 9.36 8.28 9.36z"></path>
</svg>
