<!-- Generated by IcoMoon.io -->
<svg version="1.1" xmlns="http://www.w3.org/2000/svg" width="60" height="60" viewBox="0 0 60 60">
<title>coins</title>
<path fill="#6366f1" d="M53.438 43.125h-22.961c0.673-1.161 1.189-2.419 1.53-3.75h21.431c1.037 0 1.875 0.838 1.875 1.875 0 1.035-0.838 1.875-1.875 1.875zM53.438 37.5h-21.068c0.077-0.615 0.129-1.239 0.129-1.875 0-0.638-0.053-1.26-0.129-1.875h21.068c1.037 0 1.875 0.838 1.875 1.875 0 1.035-0.838 1.875-1.875 1.875zM53.438 31.875h-21.431c-0.343-1.331-0.857-2.589-1.53-3.75h22.961c1.037 0 1.875 0.838 1.875 1.875 0 1.035-0.838 1.875-1.875 1.875zM53.438 26.25h-24.24c-1.219-1.521-2.724-2.799-4.442-3.75h28.682c1.037 0 1.875 0.838 1.875 1.875 0 1.035-0.838 1.875-1.875 1.875zM53.438 20.625h-30c-1.037 0-1.875-0.84-1.875-1.875 0-1.037 0.838-1.875 1.875-1.875h30c1.037 0 1.875 0.838 1.875 1.875 0 1.035-0.838 1.875-1.875 1.875zM53.438 15h-30c-1.037 0-1.875-0.84-1.875-1.875 0-1.037 0.838-1.875 1.875-1.875h30c1.037 0 1.875 0.838 1.875 1.875 0 1.035-0.838 1.875-1.875 1.875zM30.938 35.625c0 7.249-5.878 13.125-13.125 13.125-7.249 0-13.125-5.876-13.125-13.125s5.876-13.125 13.125-13.125c7.247 0 13.125 5.876 13.125 13.125zM22.459 37.052c-0.189-0.448-0.433-0.838-0.739-1.17s-0.652-0.617-1.043-0.855c-0.39-0.238-0.788-0.45-1.194-0.639-0.407-0.188-0.804-0.364-1.194-0.532-0.39-0.167-0.741-0.347-1.048-0.538-0.309-0.191-0.555-0.411-0.739-0.656s-0.276-0.536-0.276-0.874c0-0.225 0.041-0.439 0.122-0.641 0.082-0.201 0.206-0.375 0.375-0.519 0.167-0.143 0.377-0.257 0.626-0.337 0.249-0.083 0.544-0.122 0.879-0.122 0.429 0 0.823 0.051 1.183 0.156 0.358 0.107 0.675 0.221 0.949 0.351 0.274 0.128 0.504 0.246 0.692 0.354s0.324 0.161 0.411 0.161 0.154-0.023 0.204-0.069c0.049-0.047 0.090-0.12 0.116-0.223 0.028-0.101 0.045-0.231 0.058-0.386 0.011-0.157 0.017-0.351 0.017-0.578 0-0.203-0.004-0.373-0.011-0.508-0.008-0.137-0.023-0.251-0.039-0.341-0.021-0.090-0.043-0.163-0.069-0.218-0.030-0.054-0.081-0.12-0.159-0.197-0.079-0.079-0.238-0.176-0.48-0.291-0.242-0.116-0.519-0.221-0.831-0.313-0.313-0.094-0.649-0.167-1.007-0.221-0.073-0.011-0.148-0.008-0.221-0.017v-1.939h-1.845v1.939c-0.339 0.045-0.668 0.113-0.986 0.204-0.621 0.18-1.159 0.45-1.616 0.814s-0.821 0.821-1.089 1.369c-0.27 0.551-0.403 1.189-0.403 1.914 0 0.632 0.094 1.176 0.279 1.627 0.188 0.452 0.431 0.846 0.733 1.178s0.641 0.615 1.024 0.853c0.383 0.24 0.778 0.452 1.183 0.639 0.407 0.188 0.801 0.364 1.183 0.532s0.724 0.349 1.024 0.538c0.302 0.193 0.546 0.411 0.733 0.656 0.188 0.248 0.281 0.542 0.281 0.885 0 0.298-0.054 0.568-0.163 0.812-0.111 0.242-0.268 0.444-0.474 0.609s-0.457 0.291-0.754 0.381c-0.298 0.090-0.632 0.135-1.009 0.135-0.57 0-1.072-0.064-1.506-0.193s-0.806-0.272-1.119-0.429c-0.313-0.156-0.568-0.296-0.767-0.428-0.199-0.127-0.352-0.193-0.463-0.193-0.079 0-0.148 0.023-0.204 0.064-0.060 0.043-0.107 0.116-0.141 0.218-0.036 0.103-0.060 0.234-0.077 0.399s-0.024 0.368-0.024 0.609c0 0.36 0.022 0.636 0.064 0.827 0.043 0.193 0.116 0.339 0.217 0.439 0.101 0.101 0.266 0.216 0.497 0.349s0.518 0.257 0.861 0.377c0.343 0.118 0.741 0.221 1.189 0.308 0.448 0.084 0.936 0.126 1.459 0.126 0.023 0 0.043-0.004 0.067-0.004v1.806h1.843v-2.047c0.088-0.023 0.182-0.034 0.268-0.058 0.679-0.203 1.273-0.506 1.781-0.907s0.909-0.902 1.207-1.504c0.296-0.602 0.442-1.299 0.442-2.096 0.002-0.606-0.092-1.132-0.277-1.583zM29.197 45h24.24c1.037 0 1.875 0.838 1.875 1.875 0 1.035-0.838 1.875-1.875 1.875h-28.682c1.718-0.951 3.223-2.229 4.442-3.75z"></path>
</svg>
