<!-- Generated by IcoMoon.io -->
<svg version="1.1" xmlns="http://www.w3.org/2000/svg" width="54" height="60" viewBox="0 0 54 60">
<title>home</title>
<path d="M53.291 30.84c0.64 0.64 0.86 1.18 0.66 1.62s-0.74 0.66-1.62 0.66c0 0-5.040 0-5.040 0s0 18.6 0 18.6c0 0.56-0.020 0.98-0.060 1.26s-0.2 0.54-0.48 0.78c-0.28 0.24-0.74 0.36-1.38 0.36 0 0-12.24 0-12.24 0s0-18.6 0-18.6c0 0-12.24 0-12.24 0s0 18.6 0 18.6c0 0-11.64 0-11.64 0-1.12 0-1.82-0.2-2.1-0.6s-0.42-1-0.42-1.8c0 0 0-18.6 0-18.6s-5.040 0-5.040 0c-0.88 0-1.42-0.22-1.62-0.66s0.020-0.98 0.66-1.62c0 0 24-24.12 24-24.12 0.64-0.64 1.4-0.96 2.28-0.96s1.64 0.32 2.28 0.96c0 0 24 24.12 24 24.12z"></path>
</svg>
