<!-- Generated by IcoMoon.io -->
<svg version="1.1" xmlns="http://www.w3.org/2000/svg" width="60" height="60" viewBox="0 0 60 60">
<title>search2</title>
<path fill="white" d="M36.426 38.301c-2.606 1.857-5.795 2.949-9.238 2.949-8.802 0-15.938-7.135-15.938-15.938s7.135-15.938 15.938-15.938c8.802 0 15.938 7.135 15.938 15.938 0 3.444-1.092 6.632-2.949 9.238l10.472 10.472c1.032 1.032 1.023 2.682-0 3.706l-0.044 0.044c-1.021 1.021-2.682 1.024-3.706 0l-10.472-10.472zM27.188 37.5c6.731 0 12.188-5.457 12.188-12.188s-5.457-12.188-12.188-12.188c-6.731 0-12.188 5.457-12.188 12.188s5.457 12.188 12.188 12.188v0z"></path>
</svg>
