<!-- Generated by IcoMoon.io -->
<svg version="1.1" xmlns="http://www.w3.org/2000/svg" width="47" height="60" viewBox="0 0 47 60">
<title>search</title>
<path d="M46.32 46.32c1.2 1.36 1.32 2.6 0.36 3.72 0 0-2.76 2.76-2.76 2.76-1.44 1.28-2.8 1.28-4.080 0 0 0-11.4-11.4-11.4-11.4-2.96 1.68-6.080 2.52-9.36 2.52-5.12 0-9.58-1.9-13.38-5.7s-5.7-8.26-5.7-13.38c0-5.12 1.8-9.5 5.4-13.14s7.96-5.46 13.080-5.46c5.12 0 9.6 1.9 13.44 5.7s5.76 8.26 5.76 13.38c0 3.52-0.92 6.76-2.76 9.72 0 0 11.4 11.28 11.4 11.28zM5.64 24.84c0 3.52 1.36 6.64 4.080 9.36s5.84 4.080 9.36 4.080c3.52 0 6.54-1.26 9.060-3.78s3.78-5.58 3.78-9.18c0-3.52-1.36-6.62-4.080-9.3s-5.84-4.020-9.36-4.020c-3.52 0-6.54 1.26-9.060 3.78s-3.78 5.54-3.78 9.060c0 0 0 0 0 0z"></path>
</svg>
